<svg id="Layer_1" enable-background="new 0 0 511.978 511.978" height="512" viewBox="0 0 511.978 511.978" width="512" xmlns="http://www.w3.org/2000/svg"><g><g clip-rule="evenodd" fill-rule="evenodd"><path d="m217.015 175.062c.863-19.648-9.821-41.034-26.145-37.508-63.889 13.801-16.19 73.4 20.015 74.294s5.268-17.139 6.13-36.786zm-33.17 66.317c-14.116-3.438-28.387-6.479-42.499-8.948-7.119-1.245-14.198-2.344-21.197-3.275-3.482-.463-6.923-.916-10.316-1.366-14.987-1.989-29.045-3.939-41.58-6.587-22.265-4.703-39.727-11.608-49.056-24.848-18.921-26.851-7.473-72.286 23.906-78.016 19.517-3.564 29.852-6.956 36.522-10.926 73.241-75.736 57.08 15.865 95.988-7.631 15.345-9.268 24.142-34.162 39.847-40.978 34.071-14.787 50.53 28.267 50.53 28.267 79.549-36.522 145.589-15.51 177.608 0 32.02 15.509 8.506 38.273 3.753 38.773s-21.763 13.008-5.253 27.016 30.268 45.528 34.271 98.56c-34.547 18.324-79.267 35.975-126.773 52.369-11.516-8.862-45.291-24.475-88.204-39.425-13.069-4.553-26.986-9.045-41.38-13.265-11.804-3.461-23.928-6.739-36.167-9.72zm103.406-89.771c-11.147 11.632-9.151 40.43-6.453 49.963 8.442 29.831 55.194 29.707 58.985 30.086 5.003.5 51.531-6.504 48.029-62.538-2.663-42.615-30.299-46.055-61.299-37.471-16.039 4.441-30.104 10.404-39.262 19.96zm-210.031 34.693c22.133 7.307 33.563-5.805 32.211-21.311-6.397-22.364-19.741-20.089-38.033-16.041-18.293 4.046-16.311 30.045 5.822 37.352z" fill="#faf7f6"/><path d="m280.798 201.571c-2.697-9.533-4.694-38.331 6.453-49.963 9.158-9.556 23.223-15.519 39.262-19.96 31-8.584 58.636-5.144 61.299 37.471 3.502 56.034-43.026 63.038-48.029 62.538-3.791-.379-50.543-.255-58.985-30.086z" fill="#c1b0b5"/><path d="m217.015 175.062c-.862 19.647 30.075 37.68-6.13 36.786-36.206-.894-83.904-60.493-20.015-74.294 16.325-3.527 27.008 17.86 26.145 37.508z" fill="#c1b0b5"/><path d="m109.431 164.99c1.352 15.506-10.077 28.618-32.211 21.311-22.133-7.307-24.115-33.305-5.823-37.352 18.292-4.048 31.636-6.323 38.034 16.041z" fill="#c1b0b5"/><g fill="#f3f0f1"><path d="m141.346 232.431c14.112 2.469 28.383 5.51 42.499 8.948-11.518 16.797-17.521 29.092-19.959 40.657-3.031 14.376-23.702-9.813-22.54-49.605z"/><path d="m109.833 227.79c-10.887 16.074-16.623 28.001-18.992 39.237-2.934 13.915-22.4-8.299-22.588-45.824 12.535 2.648 26.593 4.598 41.58 6.587z"/><path d="m242.433 303.549c-3.102 14.716-24.693-10.975-22.423-52.45 14.394 4.22 28.311 8.712 41.38 13.265-10.864 16.047-16.59 27.961-18.957 39.185z"/><path d="m196.534 310.655c2.201 10.439 7.307 21.473 16.75 35.875-13.536 3.957-26.709 7.757-39.333 11.387-.308-38.391 19.612-61.354 22.583-47.262z"/><path d="m116.485 331.668c2.29 10.859 7.723 22.363 17.912 37.63-14.991 4.338-28.624 8.34-40.451 11.971-1.161-39.79 19.509-63.977 22.539-49.601z"/></g><path d="m134.397 369.298c12.347-3.572 25.616-7.373 39.554-11.381 12.624-3.63 25.797-7.431 39.333-11.387 43.744-12.785 91.279-27.198 136.311-42.739 47.506-16.395 92.226-34.046 126.773-52.37 27.015-4.254 37.021 33.269 8.504 48.778-28.517 15.51-20.513 57.536-55.034 85.553s-147.59 99.561-188.115 57.535-59.036 15.009-134.582 9.506c-48.194-3.511-66.865-16.999-69.261-30.982-3.761-21.947 21.643-29.358 37.243-34.555 5.595-1.864 11.9-3.862 18.823-5.988 11.827-3.63 25.46-7.632 40.451-11.97zm223.522-24.198c-12.977 7.492-36.997 12.576-64.54 23.014-38.118 14.446-.25 53.533 25.016 37.023 0 0 40.525-15.009 56.534-33.521 16.01-18.511-4.034-34.008-17.01-26.516z" fill="#faf7f6"/><path d="m318.395 405.137c-25.265 16.51-63.134-22.577-25.016-37.023 27.543-10.438 51.563-15.522 64.54-23.014 12.976-7.492 33.02 8.005 17.01 26.516-16.01 18.512-56.534 33.521-56.534 33.521z" fill="#c1b0b5"/></g><g><path d="m510.159 262.444c-3.924-11.564-13.241-19.196-24.636-20.952-5.865-58.344-23.151-84.543-36.956-96.257-2.313-1.962-3.688-3.933-3.503-5.021.289-1.704 2.827-3.912 4.179-4.551 7.809-1.487 18.372-12.238 20.485-24.328 1.368-7.822.358-22.546-21.771-33.265-32.648-15.814-98.154-36.666-177.253-3.965-4.809-8.311-13.449-19.915-26.345-25.338-10.412-4.379-21.475-4.089-32.881.863-10.769 4.673-18.085 14.606-25.161 24.211-5.083 6.901-10.338 14.036-15.875 17.38-7.504 4.53-8.75 3.458-16.24-6.295-5.61-7.305-13.294-17.31-26.827-18.08-14.504-.817-31.161 9.234-53.935 32.579-6.174 3.342-16.19 6.164-32.135 9.076-16.104 2.94-29.334 14.394-36.298 31.423-8.435 20.625-6.074 45.036 6.014 62.19 9.937 14.101 26.698 21.901 47.543 27.095 2.041 27.899 13.872 50.711 27.504 51.945.38.035.763.052 1.149.052 5.575 0 11.619-3.632 13.408-12.116 1.847-8.761 6.248-18.315 14.107-30.564l4.098.542c4.18.556 8.38 1.174 12.59 1.841 1.31 29.041 13.272 53.7 27.462 55.231.458.049.923.075 1.39.075 5.601 0 11.604-3.614 13.397-12.116 1.881-8.921 6.449-18.739 14.629-31.372 7.274 1.838 14.476 3.771 21.563 5.777.392 30.348 12.592 57.33 27.385 59.129.523.064 1.051.096 1.584.096 5.62 0 11.591-3.602 13.387-12.117 1.781-8.451 5.927-17.622 13.265-29.248 24.709 8.893 45.663 17.783 60.125 24.989-36.006 11.978-72.97 23.201-107.896 33.457-6.183-10.212-9.761-18.471-11.394-26.218-1.936-9.18-8.791-12.666-14.736-12.047-13.892 1.445-25.786 25.398-27.434 53.783-1.721.495-3.437.988-5.137 1.476-6.946 1.995-13.704 3.937-20.242 5.822-6.861-11.046-10.778-19.857-12.5-28.021-1.956-9.274-8.886-12.725-14.893-12.03-14.234 1.648-26.291 27.176-27.388 56.314-4.296 1.349-8.318 2.644-12.027 3.88l-1.929.639c-8.46 2.795-18.988 6.275-27.529 12.344-14.802 10.52-16.044 23.614-14.479 32.748 2.656 15.501 18.413 34.897 78.391 39.266 36.3 2.647 60.999-8.443 79.03-16.538 21.67-9.729 31.56-14.169 49.08 4 10.328 10.71 24.476 16.065 42.329 16.064 17.989-.001 39.741-5.439 65.118-16.315 35.815-15.35 73.92-40.027 94.168-56.46 19.649-15.947 27.113-36.205 33.111-52.482 5.395-14.642 9.656-26.207 20.398-32.05 21.057-11.453 25.393-32.154 20.511-46.541zm-425.649-9.143c-2.13-4.755-4.273-11.424-5.415-19.897 4.549.774 9.22 1.493 13.999 2.182-3.661 6.332-6.482 12.152-8.584 17.715zm73.034 15.049c-2.457-5.472-4.917-13.481-5.849-23.848 5.362 1.047 10.722 2.167 16.065 3.351-4.463 7.422-7.812 14.134-10.216 20.497zm78.539 21.522c-2.605-5.924-5.126-14.609-5.952-25.35 5.441 1.69 10.782 3.41 16.005 5.147-4.376 7.302-7.684 13.921-10.053 20.203zm-45.897 34.499c1.93 5.118 4.475 10.452 7.732 16.217-4.432 1.286-8.821 2.556-13.158 3.808 1.131-8.532 3.282-15.242 5.426-20.025zm-80.046 21.003c2.128 5.638 5.02 11.56 8.767 18.013-4.996 1.46-9.815 2.879-14.431 4.255 1.032-9.319 3.315-16.918 5.664-22.268zm369.954-53.96c-17.352 9.437-23.583 26.349-29.61 42.704-5.685 15.429-11.563 31.382-26.948 43.868-19.206 15.587-55.388 39.012-89.443 53.607-52.489 22.496-75.288 15.001-85.171 4.751-27.281-28.291-48.842-18.611-71.668-8.362-17.867 8.021-38.12 17.111-69.385 14.836-54.208-3.949-59.601-19.6-60.131-22.697-1.821-10.626 8.193-15.989 28.573-22.724l1.975-.654c20.5-6.829 50.97-15.582 86.25-25.716 64.024-18.392 143.705-41.281 214.338-67.004 5.189-1.89 7.864-7.629 5.975-12.818-1.89-5.189-7.629-7.863-12.818-5.975-6.889 2.509-13.872 4.991-20.918 7.446-31.351-20.101-136.298-61.016-229.643-73.432l-5.707-.756c-40.67-5.376-75.794-10.019-88.39-27.893-8.128-11.535-9.675-28.855-3.851-43.1 2.544-6.222 8.705-17.005 21.379-19.319 19.61-3.581 31.525-7.221 39.84-12.17.761-.453 1.458-1.005 2.073-1.641 23.762-24.573 34.906-27.821 39.427-27.55 4.175.238 7.318 4.067 12.101 10.294 3.972 5.171 8.473 11.032 15.105 14.26 8.199 3.991 17.397 2.974 27.336-3.027 8.941-5.4 15.396-14.164 21.639-22.639 5.504-7.472 11.195-15.198 17.02-17.726 6.271-2.722 11.866-2.982 17.106-.798 10.737 4.476 18.159 18.475 20.102 23.463.988 2.583 3.001 4.642 5.561 5.688s5.438.984 7.952-.17c75.608-34.712 138.385-14.955 169.077-.088 4.004 1.939 10.742 5.886 10.887 10.533.12 3.859-3.742 8.24-5.598 9.607-6.974 1.681-15.739 8.862-18.508 17.833-1.671 5.413-2.645 16.046 9.608 26.442 9.148 7.762 24.947 29.058 30.212 85.134-3.665 1.872-7.504 3.778-11.515 5.704-4.979 2.391-7.077 8.365-4.686 13.343 2.391 4.979 8.367 7.076 13.343 4.686 5.806-2.788 11.32-5.551 16.417-8.225 8.071-.597 10.936 5.139 11.82 7.744 2.351 6.928-.177 16.586-11.126 22.541z"/><path d="m378.364 125.796c-12.841-9.151-30.674-10.389-54.52-3.786-20.504 5.677-34.426 12.883-43.813 22.678-15.151 15.81-11.793 49.223-8.855 59.605 4.454 15.739 19.619 34.979 66.569 37.261.496.024.872.04 1.043.053.491.049 1.038.074 1.637.074 8.073 0 25.506-4.578 38.552-17.148 9.603-9.252 20.663-26.485 18.815-56.039-1.251-20.037-7.788-34.403-19.428-42.698zm-11.856 82.908c-9.849 10.529-23.469 12.904-26.052 12.975-.405-.031-.991-.064-1.74-.101-15.853-.771-43.207-4.748-48.295-22.73-2.699-9.54-2.845-33.126 4.05-40.321 6.792-7.087 17.821-12.565 34.71-17.242 8.254-2.285 15.434-3.427 21.505-3.427 6.742 0 12.118 1.41 16.071 4.227 6.491 4.625 10.217 13.931 11.075 27.658 1.044 16.703-2.766 29.812-11.324 38.961z"/><path d="m227.006 175.5c.739-16.841-5.352-33.267-15.518-41.846-6.561-5.538-14.635-7.622-22.729-5.875-37.961 8.2-39.983 31.1-39.091 40.564 2.435 25.815 33.205 52.815 60.97 53.501.997.024 1.992.039 2.981.039 9.555 0 18.569-1.378 22.888-8.589 4.771-7.964.028-16.323-3.783-23.04-2.769-4.881-5.909-10.414-5.718-14.754zm-15.874 26.351c-17.542-.433-40.065-19.614-41.552-35.385-.864-9.158 7.01-15.597 23.401-19.138.436-.094.903-.165 1.407-.165 1.179 0 2.557.389 4.2 1.775 5.344 4.509 8.892 15.312 8.437 25.685-.443 10.085 4.613 18.996 8.304 25.502.3.529.626 1.104.953 1.689-1.354.064-3.049.089-5.15.037z"/><path d="m119.045 162.239c-3.972-13.883-11.031-22.006-21.583-24.833-8.458-2.267-17.407-.615-28.226 1.778-11.674 2.583-19.601 11.822-20.194 23.537-.727 14.367 9.57 27.968 25.042 33.076 5.609 1.852 10.548 2.576 14.844 2.576 9.58 0 15.961-3.604 19.43-6.349 8.005-6.335 12.027-16.505 11.034-27.903-.054-.637-.171-1.267-.347-1.882zm-23.096 14.102c-3.226 2.554-8.764 2.719-15.594.464-8.108-2.677-11.561-8.653-11.337-13.073.14-2.771 1.583-4.366 4.54-5.02 4.909-1.086 10.741-2.376 15.177-2.376 1.33 0 2.535.116 3.552.388 1.37.367 4.515 1.211 7.24 10.038.164 4.174-1.118 7.632-3.578 9.579z"/><path d="m352.919 336.44c-6.582 3.8-17.571 7.254-30.296 11.254-9.827 3.088-20.965 6.589-32.787 11.069-18.292 6.933-21.977 18.628-22.544 24.983-.989 11.061 5.83 22.683 17.37 29.61 6.384 3.832 13.361 5.749 20.185 5.749 6.34 0 12.546-1.655 18.019-4.967 6.685-2.564 43.418-17.237 59.628-35.979 5.128-5.931 7.929-12.21 8.324-18.665.376-6.144-1.578-12.142-5.502-16.89-7.933-9.598-21.861-12.247-32.397-6.164zm14.447 28.635c-11.722 13.553-41.834 26.746-52.444 30.685-.701.26-1.371.597-1.997 1.006-7.569 4.947-15.668.824-17.971-.558-4.783-2.871-8.039-7.362-7.742-10.681.257-2.882 3.797-5.821 9.711-8.062 11.282-4.275 22.127-7.684 31.696-10.692 13.851-4.354 25.813-8.113 34.299-13.012.709-.409 1.501-.59 2.302-.59 1.792 0 3.629.905 4.678 2.174 2.502 3.026-.513 7.395-2.532 9.73z"/><path d="m417.468 268.481h-.007c-5.523 0-9.996 4.477-9.996 10s4.48 10 10.003 10 10-4.477 10-10-4.477-10-10-10z"/></g></g></svg>